<svg width="38" height="50" viewBox="0 0 38 50" fill="none" xmlns="http://www.w3.org/2000/svg">
<g opacity="0.1">
<mask id="path-1-inside-1_31326_102" fill="white">
<path d="M23.2468 0.5C23.4942 0.504515 23.7395 0.549596 23.9734 0.632812V5.56055C23.9757 7.29982 25.3846 8.70869 27.1238 8.71094L31.5173 8.70996C31.5781 8.90793 31.6098 9.1153 31.6121 9.32227V42.3506C31.6119 43.5924 30.6039 44.5983 29.3621 44.6006H2.55542C1.31367 44.5982 0.305622 43.5923 0.30542 42.3506L0.30835 2.75C0.308466 1.50813 1.31645 0.50225 2.55835 0.5H23.2468ZM19.2351 20.9463C19.0236 20.944 18.8164 20.9931 18.6296 21.0898C18.4541 21.1978 18.3036 21.3377 18.1843 21.502V21.0205H17.0115V25.5293H18.2761V23.9697C18.3954 24.0957 18.5422 24.1952 18.7019 24.2627C18.8705 24.3278 19.0481 24.3616 19.2302 24.3594C19.6059 24.3684 19.9658 24.2128 20.2156 23.9316C20.4991 23.5806 20.6387 23.1352 20.6072 22.6875C20.6229 22.2465 20.4973 21.8118 20.2498 21.4473C20.0203 21.1167 19.6377 20.9284 19.2351 20.9463ZM11.3894 21.875H12.8318L11.2654 23.4727V24.2852H14.5193V23.4297H12.7683L14.4177 21.751V21.0205H11.3894V21.875ZM15.0164 24.2852H16.2693V21.0205H15.0164V24.2852ZM18.825 21.8662C18.9734 21.8662 19.1132 21.9338 19.2009 22.0508C19.3178 22.2217 19.3722 22.4282 19.3542 22.6328C19.3745 22.8466 19.3225 23.0629 19.2078 23.2451C19.1201 23.3597 18.9854 23.4247 18.8416 23.4248C18.6841 23.4271 18.5307 23.3577 18.4294 23.2363C18.3079 23.0698 18.2493 22.8669 18.2673 22.6621C18.2471 22.4462 18.3038 22.2304 18.4275 22.0527C18.5242 21.9314 18.6699 21.8641 18.825 21.8662ZM15.0164 20.627H16.2693V19.7764H15.0164V20.627ZM24.8953 1.21777L31.0115 7.79004C31.0181 7.79672 31.0204 7.80387 31.0271 7.81055H27.1228C25.8811 7.81035 24.873 6.80226 24.8728 5.56055L24.8757 5.5625V1.2002C24.8823 1.20668 24.8887 1.21127 24.8953 1.21777Z"/>
</mask>
<path d="M23.2468 0.5C23.4942 0.504515 23.7395 0.549596 23.9734 0.632812V5.56055C23.9757 7.29982 25.3846 8.70869 27.1238 8.71094L31.5173 8.70996C31.5781 8.90793 31.6098 9.1153 31.6121 9.32227V42.3506C31.6119 43.5924 30.6039 44.5983 29.3621 44.6006H2.55542C1.31367 44.5982 0.305622 43.5923 0.30542 42.3506L0.30835 2.75C0.308466 1.50813 1.31645 0.50225 2.55835 0.5H23.2468ZM19.2351 20.9463C19.0236 20.944 18.8164 20.9931 18.6296 21.0898C18.4541 21.1978 18.3036 21.3377 18.1843 21.502V21.0205H17.0115V25.5293H18.2761V23.9697C18.3954 24.0957 18.5422 24.1952 18.7019 24.2627C18.8705 24.3278 19.0481 24.3616 19.2302 24.3594C19.6059 24.3684 19.9658 24.2128 20.2156 23.9316C20.4991 23.5806 20.6387 23.1352 20.6072 22.6875C20.6229 22.2465 20.4973 21.8118 20.2498 21.4473C20.0203 21.1167 19.6377 20.9284 19.2351 20.9463ZM11.3894 21.875H12.8318L11.2654 23.4727V24.2852H14.5193V23.4297H12.7683L14.4177 21.751V21.0205H11.3894V21.875ZM15.0164 24.2852H16.2693V21.0205H15.0164V24.2852ZM18.825 21.8662C18.9734 21.8662 19.1132 21.9338 19.2009 22.0508C19.3178 22.2217 19.3722 22.4282 19.3542 22.6328C19.3745 22.8466 19.3225 23.0629 19.2078 23.2451C19.1201 23.3597 18.9854 23.4247 18.8416 23.4248C18.6841 23.4271 18.5307 23.3577 18.4294 23.2363C18.3079 23.0698 18.2493 22.8669 18.2673 22.6621C18.2471 22.4462 18.3038 22.2304 18.4275 22.0527C18.5242 21.9314 18.6699 21.8641 18.825 21.8662ZM15.0164 20.627H16.2693V19.7764H15.0164V20.627ZM24.8953 1.21777L31.0115 7.79004C31.0181 7.79672 31.0204 7.80387 31.0271 7.81055H27.1228C25.8811 7.81035 24.873 6.80226 24.8728 5.56055L24.8757 5.5625V1.2002C24.8823 1.20668 24.8887 1.21127 24.8953 1.21777Z" fill="black"/>
<path d="M23.2468 0.5L23.2573 -0.076H23.2468V0.5ZM23.9734 0.632812H24.5494V0.226355L24.1664 0.0901274L23.9734 0.632812ZM23.9734 5.56055L23.3974 5.56055L23.3974 5.56132L23.9734 5.56055ZM27.1238 8.71094L27.123 9.28694L27.1239 9.28694L27.1238 8.71094ZM31.5173 8.70996L32.068 8.54101L31.9431 8.13387L31.5172 8.13396L31.5173 8.70996ZM31.6121 9.32227L32.1881 9.32227L32.188 9.31598L31.6121 9.32227ZM31.6121 42.3506L32.1881 42.3507V42.3506H31.6121ZM29.3621 44.6006L29.3621 45.1766L29.3631 45.1766L29.3621 44.6006ZM2.55542 44.6006L2.55432 45.1766H2.55542V44.6006ZM0.30542 42.3506L-0.27058 42.3505L-0.27058 42.3507L0.30542 42.3506ZM0.30835 2.75L-0.26765 2.74995L-0.26765 2.74996L0.30835 2.75ZM2.55835 0.5L2.55835 -0.076001L2.55731 -0.0759991L2.55835 0.5ZM19.2351 20.9463L19.229 21.5223L19.2449 21.5224L19.2607 21.5217L19.2351 20.9463ZM18.6296 21.0898L18.3647 20.5784L18.3458 20.5882L18.3278 20.5993L18.6296 21.0898ZM18.1843 21.502H17.6083V23.2757L18.6504 21.8404L18.1843 21.502ZM18.1843 21.0205H18.7603V20.4445H18.1843V21.0205ZM17.0115 21.0205V20.4445H16.4355V21.0205H17.0115ZM17.0115 25.5293H16.4355V26.1053H17.0115V25.5293ZM18.2761 25.5293V26.1053H18.8521V25.5293H18.2761ZM18.2761 23.9697L18.6945 23.5738L17.7001 22.5232V23.9697H18.2761ZM18.7019 24.2627L18.4777 24.7933L18.4859 24.7968L18.4943 24.8L18.7019 24.2627ZM19.2302 24.3594L19.244 23.7835L19.2336 23.7833L19.2232 23.7834L19.2302 24.3594ZM20.2156 23.9316L20.6462 24.3141L20.6552 24.3041L20.6637 24.2936L20.2156 23.9316ZM20.6072 22.6875L20.0315 22.6669L20.0305 22.6975L20.0326 22.7279L20.6072 22.6875ZM20.2498 21.4473L20.7263 21.1237L20.7229 21.1188L20.2498 21.4473ZM11.3894 21.875H10.8134V22.451H11.3894V21.875ZM12.8318 21.875L13.2431 22.2783L14.2032 21.299H12.8318V21.875ZM11.2654 23.4727L10.8541 23.0694L10.6894 23.2374V23.4727H11.2654ZM11.2654 24.2852H10.6894V24.8612H11.2654V24.2852ZM14.5193 24.2852V24.8612H15.0953V24.2852H14.5193ZM14.5193 23.4297H15.0953V22.8537H14.5193V23.4297ZM12.7683 23.4297L12.3574 23.026L11.3949 24.0057H12.7683V23.4297ZM14.4177 21.751L14.8286 22.1547L14.9937 21.9866V21.751H14.4177ZM14.4177 21.0205H14.9937V20.4445H14.4177V21.0205ZM11.3894 21.0205V20.4445H10.8134V21.0205H11.3894ZM15.0164 24.2852H14.4404V24.8612H15.0164V24.2852ZM16.2693 24.2852V24.8612H16.8453V24.2852H16.2693ZM16.2693 21.0205H16.8453V20.4445H16.2693V21.0205ZM15.0164 21.0205V20.4445H14.4404V21.0205H15.0164ZM18.825 21.8662L18.817 22.4422H18.825V21.8662ZM19.2009 22.0508L19.6764 21.7257L19.6693 21.7153L19.6617 21.7052L19.2009 22.0508ZM19.3542 22.6328L18.7804 22.5826L18.7759 22.6349L18.7808 22.6871L19.3542 22.6328ZM19.2078 23.2451L19.6653 23.5951L19.6812 23.5742L19.6952 23.552L19.2078 23.2451ZM18.8416 23.4248L18.841 22.8488L18.8333 22.8489L18.8416 23.4248ZM18.4294 23.2363L17.9642 23.5759L17.9752 23.591L17.9871 23.6053L18.4294 23.2363ZM18.2673 22.6621L18.8411 22.7126L18.8457 22.6605L18.8408 22.6085L18.2673 22.6621ZM18.4275 22.0527L17.977 21.6938L17.9654 21.7084L17.9548 21.7236L18.4275 22.0527ZM15.0164 20.627H14.4404V21.203H15.0164V20.627ZM16.2693 20.627V21.203H16.8453V20.627H16.2693ZM16.2693 19.7764H16.8453V19.2004H16.2693V19.7764ZM15.0164 19.7764V19.2004H14.4404V19.7764H15.0164ZM24.8953 1.21777L25.3169 0.825372L25.3091 0.81697L25.301 0.808885L24.8953 1.21777ZM31.0115 7.79004L30.5898 8.18244L30.5954 8.18848L30.6012 8.19435L31.0115 7.79004ZM31.0271 7.81055V8.38655H32.4177L31.4344 7.40325L31.0271 7.81055ZM27.1228 7.81055L27.1227 8.38655H27.1228V7.81055ZM24.8728 5.56055L25.1923 5.08129L24.2967 4.48419L24.2968 5.56062L24.8728 5.56055ZM24.8757 5.5625L24.5562 6.04176L25.4517 6.63877V5.5625H24.8757ZM24.8757 1.2002L25.2808 0.790692L24.2997 -0.179761V1.2002H24.8757ZM23.2468 0.5L23.2363 1.0759C23.4207 1.07927 23.6043 1.11287 23.7803 1.1755L23.9734 0.632812L24.1664 0.0901274C23.8746 -0.0136809 23.5678 -0.070238 23.2573 -0.0759041L23.2468 0.5ZM23.9734 0.632812H23.3974V5.56055H23.9734H24.5494V0.632812H23.9734ZM23.9734 5.56055L23.3974 5.56132C23.4001 7.61808 25.0663 9.28428 27.123 9.28694L27.1238 8.71094L27.1245 8.13494C25.7029 8.1331 24.5513 6.98155 24.5494 5.55978L23.9734 5.56055ZM27.1238 8.71094L27.1239 9.28694L31.5175 9.28596L31.5173 8.70996L31.5172 8.13396L27.1237 8.13494L27.1238 8.71094ZM31.5173 8.70996L30.9667 8.87891C31.0109 9.02323 31.0344 9.17577 31.0361 9.32855L31.6121 9.32227L32.188 9.31598C32.1852 9.05482 32.1452 8.79262 32.068 8.54101L31.5173 8.70996ZM31.6121 9.32227H31.0361V42.3506H31.6121H32.1881V9.32227H31.6121ZM31.6121 42.3506L31.0361 42.3505C31.0359 43.2734 30.2864 44.0229 29.361 44.0246L29.3621 44.6006L29.3631 45.1766C30.9214 45.1738 32.1878 43.9114 32.1881 42.3507L31.6121 42.3506ZM29.3621 44.6006V44.0246H2.55542V44.6006V45.1766H29.3621V44.6006ZM2.55542 44.6006L2.55652 44.0246C1.63112 44.0228 0.88157 43.2733 0.88142 42.3505L0.30542 42.3506L-0.27058 42.3507C-0.270326 43.9114 0.996226 45.1736 2.55432 45.1766L2.55542 44.6006ZM0.30542 42.3506L0.88142 42.3506L0.88435 2.75004L0.30835 2.75L-0.26765 2.74996L-0.27058 42.3505L0.30542 42.3506ZM0.30835 2.75L0.88435 2.75005C0.884436 1.82715 1.6339 1.07768 2.55939 1.076L2.55835 0.5L2.55731 -0.0759991C0.999003 -0.0731762 -0.267504 1.1891 -0.26765 2.74995L0.30835 2.75ZM2.55835 0.5V1.076H23.2468V0.5V-0.076H2.55835V0.5ZM19.2351 20.9463L19.2412 20.3703C18.9362 20.3671 18.6358 20.4379 18.3647 20.5784L18.6296 21.0898L18.8946 21.6013C18.997 21.5483 19.111 21.521 19.229 21.5223L19.2351 20.9463ZM18.6296 21.0898L18.3278 20.5993C18.0881 20.7467 17.8818 20.9383 17.7182 21.1636L18.1843 21.502L18.6504 21.8404C18.7254 21.7371 18.8201 21.6489 18.9315 21.5804L18.6296 21.0898ZM18.1843 21.502H18.7603V21.0205H18.1843H17.6083V21.502H18.1843ZM18.1843 21.0205V20.4445H17.0115V21.0205V21.5965H18.1843V21.0205ZM17.0115 21.0205H16.4355V25.5293H17.0115H17.5875V21.0205H17.0115ZM17.0115 25.5293V26.1053H18.2761V25.5293V24.9533H17.0115V25.5293ZM18.2761 25.5293H18.8521V23.9697H18.2761H17.7001V25.5293H18.2761ZM18.2761 23.9697L17.8578 24.3657C18.0347 24.5526 18.2487 24.6965 18.4777 24.7933L18.7019 24.2627L18.9261 23.7321C18.8357 23.6939 18.7561 23.6389 18.6945 23.5738L18.2761 23.9697ZM18.7019 24.2627L18.4943 24.8C18.7281 24.8903 18.9784 24.9385 19.2373 24.9353L19.2302 24.3594L19.2232 23.7834C19.1179 23.7847 19.013 23.7654 18.9095 23.7254L18.7019 24.2627ZM19.2302 24.3594L19.2164 24.9352C19.7605 24.9482 20.2833 24.7228 20.6462 24.3141L20.2156 23.9316L19.7849 23.5491C19.6483 23.7029 19.4513 23.7885 19.244 23.7835L19.2302 24.3594ZM20.2156 23.9316L20.6637 24.2936C21.0387 23.8293 21.2235 23.2401 21.1818 22.6471L20.6072 22.6875L20.0326 22.7279C20.0539 23.0304 19.9595 23.332 19.7675 23.5697L20.2156 23.9316ZM20.6072 22.6875L21.1828 22.7081C21.2029 22.1444 21.0424 21.5892 20.7263 21.1237L20.2498 21.4473L19.7732 21.7708C19.9521 22.0343 20.0429 22.3486 20.0315 22.6669L20.6072 22.6875ZM20.2498 21.4473L20.7229 21.1188C20.3799 20.6247 19.8085 20.3442 19.2095 20.3709L19.2351 20.9463L19.2607 21.5217C19.4669 21.5125 19.6606 21.6087 19.7766 21.7758L20.2498 21.4473ZM11.3894 21.875V22.451H12.8318V21.875V21.299H11.3894V21.875ZM12.8318 21.875L12.4205 21.4717L10.8541 23.0694L11.2654 23.4727L11.6767 23.8759L13.2431 22.2783L12.8318 21.875ZM11.2654 23.4727H10.6894V24.2852H11.2654H11.8414V23.4727H11.2654ZM11.2654 24.2852V24.8612H14.5193V24.2852V23.7092H11.2654V24.2852ZM14.5193 24.2852H15.0953V23.4297H14.5193H13.9433V24.2852H14.5193ZM14.5193 23.4297V22.8537H12.7683V23.4297V24.0057H14.5193V23.4297ZM12.7683 23.4297L13.1792 23.8334L14.8286 22.1547L14.4177 21.751L14.0069 21.3473L12.3574 23.026L12.7683 23.4297ZM14.4177 21.751H14.9937V21.0205H14.4177H13.8417V21.751H14.4177ZM14.4177 21.0205V20.4445H11.3894V21.0205V21.5965H14.4177V21.0205ZM11.3894 21.0205H10.8134V21.875H11.3894H11.9654V21.0205H11.3894ZM15.0164 24.2852V24.8612H16.2693V24.2852V23.7092H15.0164V24.2852ZM16.2693 24.2852H16.8453V21.0205H16.2693H15.6933V24.2852H16.2693ZM16.2693 21.0205V20.4445H15.0164V21.0205V21.5965H16.2693V21.0205ZM15.0164 21.0205H14.4404V24.2852H15.0164H15.5924V21.0205H15.0164ZM18.825 21.8662V22.4422C18.7999 22.4422 18.7657 22.4305 18.7401 22.3964L19.2009 22.0508L19.6617 21.7052C19.4607 21.4371 19.147 21.2902 18.825 21.2902V21.8662ZM19.2009 22.0508L18.7255 22.3759C18.7677 22.4377 18.7866 22.5118 18.7804 22.5826L19.3542 22.6328L19.9281 22.6831C19.9577 22.3447 19.8678 22.0056 19.6764 21.7257L19.2009 22.0508ZM19.3542 22.6328L18.7808 22.6871C18.789 22.7732 18.7679 22.8627 18.7203 22.9382L19.2078 23.2451L19.6952 23.552C19.8771 23.2631 19.96 22.9199 19.9277 22.5785L19.3542 22.6328ZM19.2078 23.2451L18.7503 22.8952C18.7741 22.864 18.81 22.8488 18.841 22.8488L18.8416 23.4248L18.8421 24.0008C19.1607 24.0005 19.4661 23.8555 19.6653 23.5951L19.2078 23.2451ZM18.8416 23.4248L18.8333 22.8489C18.8416 22.8487 18.8482 22.8504 18.8534 22.8528C18.8587 22.8552 18.8653 22.8596 18.8718 22.8674L18.4294 23.2363L17.9871 23.6053C18.2012 23.862 18.5211 24.0054 18.8498 24.0007L18.8416 23.4248ZM18.4294 23.2363L18.8947 22.8968C18.8528 22.8393 18.8357 22.7741 18.8411 22.7126L18.2673 22.6621L17.6935 22.6117C17.663 22.9596 17.7631 23.3004 17.9642 23.5759L18.4294 23.2363ZM18.2673 22.6621L18.8408 22.6085C18.8333 22.5276 18.8545 22.4475 18.9002 22.3818L18.4275 22.0527L17.9548 21.7236C17.7531 22.0133 17.661 22.3648 17.6938 22.7157L18.2673 22.6621ZM18.4275 22.0527L18.878 22.4117C18.8704 22.4212 18.86 22.4295 18.8482 22.435C18.8366 22.4404 18.8256 22.4423 18.817 22.4422L18.825 21.8662L18.8329 21.2903C18.5039 21.2857 18.1873 21.4298 17.977 21.6938L18.4275 22.0527ZM15.0164 20.627V21.203H16.2693V20.627V20.051H15.0164V20.627ZM16.2693 20.627H16.8453V19.7764H16.2693H15.6933V20.627H16.2693ZM16.2693 19.7764V19.2004H15.0164V19.7764V20.3524H16.2693V19.7764ZM15.0164 19.7764H14.4404V20.627H15.0164H15.5924V19.7764H15.0164ZM24.8953 1.21777L24.4736 1.61017L30.5898 8.18244L31.0115 7.79004L31.4331 7.39764L25.3169 0.825372L24.8953 1.21777ZM31.0115 7.79004L30.6012 8.19435C30.5785 8.17128 30.5617 8.1501 30.5506 8.13482C30.5452 8.12747 30.5412 8.12152 30.5389 8.11813C30.537 8.11522 30.5353 8.11269 30.5364 8.11437C30.5368 8.11492 30.5396 8.11936 30.5431 8.12446C30.5468 8.12996 30.5523 8.13794 30.5592 8.14729C30.5734 8.16659 30.5934 8.19139 30.6198 8.21784L31.0271 7.81055L31.4344 7.40325C31.4575 7.42637 31.4747 7.44776 31.4864 7.46364C31.492 7.47128 31.4963 7.47754 31.4988 7.48131C31.5011 7.48469 31.5029 7.48739 31.5021 7.48621C31.5021 7.48616 31.4993 7.48191 31.4962 7.47728C31.4928 7.47216 31.4875 7.46448 31.4809 7.45542C31.4673 7.43672 31.4478 7.41214 31.4217 7.38573L31.0115 7.79004ZM31.0271 7.81055V7.23455H27.1228V7.81055V8.38655H31.0271V7.81055ZM27.1228 7.81055L27.1229 7.23455C26.1992 7.2344 25.4489 6.48411 25.4488 5.56047L24.8728 5.56055L24.2968 5.56062C24.297 7.12041 25.563 8.3863 27.1227 8.38655L27.1228 7.81055ZM24.8728 5.56055L24.5533 6.03981L24.5562 6.04176L24.8757 5.5625L25.1952 5.08324L25.1923 5.08129L24.8728 5.56055ZM24.8757 5.5625H25.4517V1.2002H24.8757H24.2997V5.5625H24.8757ZM24.8757 1.2002L24.4707 1.6097C24.4816 1.62049 24.4912 1.62923 24.4982 1.6355C24.5047 1.64123 24.5105 1.6462 24.5114 1.64696C24.5136 1.64883 24.5109 1.64658 24.5076 1.64361C24.5037 1.64012 24.4973 1.63429 24.4896 1.62666L24.8953 1.21777L25.301 0.808885C25.29 0.798 25.2803 0.789163 25.2731 0.78278C25.2666 0.776918 25.2606 0.771897 25.2596 0.770997C25.2572 0.768986 25.2598 0.771189 25.263 0.774026C25.2669 0.777409 25.2732 0.783147 25.2808 0.790692L24.8757 1.2002Z" fill="black" mask="url(#path-1-inside-1_31326_102)"/>
</g>
<g filter="url(#filter0_d_31326_102)">
<rect x="15.9585" y="27.375" width="20.736" height="20.736" rx="10.368" fill="black"/>
<rect x="16.2465" y="27.663" width="20.16" height="20.16" rx="10.08" stroke="black" stroke-width="0.576"/>
<path d="M24.4066 39.6631L26.3266 37.7431M26.3266 37.7431L28.2466 39.6631M26.3266 37.7431V42.0631M30.1666 40.0197C30.7529 39.5354 31.1266 38.8029 31.1266 37.9831C31.1266 36.5251 29.9446 35.3431 28.4866 35.3431C28.3817 35.3431 28.2836 35.2884 28.2303 35.198C27.6044 34.1358 26.4487 33.4231 25.1266 33.4231C23.1384 33.4231 21.5266 35.0349 21.5266 37.0231C21.5266 38.0148 21.9276 38.9129 22.5763 39.564" stroke="white" stroke-width="0.96" stroke-linecap="round" stroke-linejoin="round"/>
</g>
<defs>
<filter id="filter0_d_31326_102" x="14.8065" y="26.799" width="23.0401" height="23.0401" filterUnits="userSpaceOnUse" color-interpolation-filters="sRGB">
<feFlood flood-opacity="0" result="BackgroundImageFix"/>
<feColorMatrix in="SourceAlpha" type="matrix" values="0 0 0 0 0 0 0 0 0 0 0 0 0 0 0 0 0 0 127 0" result="hardAlpha"/>
<feOffset dy="0.576"/>
<feGaussianBlur stdDeviation="0.576"/>
<feComposite in2="hardAlpha" operator="out"/>
<feColorMatrix type="matrix" values="0 0 0 0 0.0627451 0 0 0 0 0.0941176 0 0 0 0 0.156863 0 0 0 0.05 0"/>
<feBlend mode="normal" in2="BackgroundImageFix" result="effect1_dropShadow_31326_102"/>
<feBlend mode="normal" in="SourceGraphic" in2="effect1_dropShadow_31326_102" result="shape"/>
</filter>
</defs>
</svg>
